# xmcd CD database file
#
# Track frame offsets:
#	150
#	12737
#	33495
#	49502
#	64057
#	80340
#	94040
#	116315
#	128217
#	150527
#	163007
#	173815
#	194105
#
# Disc length: 2745 seconds
#
# Revision: 0
# Processed by: cddbd v1.4PL0 Copyright (c) Steve Scherf et al.
# Submitted via: CDex 1.50
#
DISCID=a70ab70d
DTITLE=Peo Jönis - Satin Dolls
DYEAR=1997
DGENRE=Jazz
TTITLE0=Alright, OK, You win
TTITLE1=My Kind of Girl
TTITLE2=Det är underbart
TTITLE3=All of Me
TTITLE4=Unforgettable
TTITLE5=Bara lev och känn (If It Comes To That)
TTITLE6=Georgia
TTITLE7=I Feel Good
TTITLE8=Breaking Up is Hard to do
TTITLE9=Med dig i mina armar (Joy Spring)
TTITLE10=Du är ljuset i mitt liv
TTITLE11=As Time Goes By
TTITLE12=Fanny Mea
EXTD=YEAR: 1997
EXTT0=
EXTT1=
EXTT2=
EXTT3=
EXTT4=
EXTT5=
EXTT6=
EXTT7=
EXTT8=
EXTT9=
EXTT10=
EXTT11=
EXTT12=
PLAYORDER=
